<svg xmlns="http://www.w3.org/2000/svg" xmlns:xlink="http://www.w3.org/1999/xlink" style="max-width:800px;padding:10px 0" version="1.1" viewBox="0 0 665 113"><defs><polygon id="path-1" points="0 0 24 0 24 12.744 0 12.744"/><polygon id="path-3" points="0 0 49 0 49 9.534 0 9.534"/><polygon id="path-5" points="0 0 39 0 39 9.534 0 9.534"/><polygon id="path-7" points="0 0 56 0 56 9.534 0 9.534"/><polygon id="path-9" points="0 0 22 0 22 10.94 0 10.94"/><polygon id="path-11" points="0 0 28 0 28 10.94 0 10.94"/><polygon id="path-13" points="0 0 28 0 28 10.94 0 10.94"/><polygon id="path-15" points="0 0 33 0 33 10.94 0 10.94"/><polygon id="path-17" points="0 0 33 0 33 10.94 0 10.94"/><polygon id="path-19" points="0 0 46 0 46 9.371 0 9.371"/><polygon id="path-21" points="0 0 52 0 52 8.826 0 8.826"/><polygon id="path-23" points="0 0 52 0 52 9.281 0 9.281"/></defs><g id="Page-1" fill="none" fill-rule="evenodd" stroke="none" stroke-width="1"><g id="Group-42"><g id="Group-2" transform="translate(346.419500, 0.000000)"><text id="Size" fill="currentColor" font-family="HelveticaNeue-Bold, Helvetica Neue" font-size="12" font-weight="bold"><tspan x="0" y="9.744">Size</tspan></text></g><g id="Group-13" transform="translate(67.500000, 26.051230)"><line id="Stroke-3" x1="145.5" x2="145.5" y1=".5" y2="72.5" stroke="#B8B8B8" stroke-width=".5"/><line id="Stroke-5" x1="290.5" x2="290.5" y1=".5" y2="72.5" stroke="#B8B8B8" stroke-width=".5"/><line id="Stroke-7" x1="435.5" x2="435.5" y1=".5" y2="72.5" stroke="#B8B8B8" stroke-width=".5"/><line id="Stroke-9" x1="580.5" x2="580.5" y1=".5" y2="72.5" stroke="#B8B8B8" stroke-width=".5"/><line id="Stroke-11" x1=".5" x2=".5" y1="73" y2="0" stroke="#000" stroke-linecap="square"/></g><g id="Group-15" transform="translate(7.535000, 31.631660)"><text id="CSSNano" fill="currentColor" font-family="HelveticaNeue, Helvetica Neue" font-size="11" font-weight="normal"><tspan x="0" y="10">CSSNano</tspan></text></g><g id="Group-17" transform="translate(17.105000, 55.843110)"><text id="ESBuild" fill="currentColor" font-family="HelveticaNeue, Helvetica Neue" font-size="11" font-weight="normal"><tspan x="0" y="10">ESBuild</tspan></text></g><g id="Group-19" transform="translate(0.000000, 80.054570)"><text id="Parcel-CSS" fill="currentColor" font-family="HelveticaNeue, Helvetica Neue" font-size="11" font-weight="normal"><tspan x="0" y="10">Parcel CSS</tspan></text></g><g id="Group-21" transform="translate(57.489460, 101.831270)"><text id="0-KB" fill="currentColor" font-family="HelveticaNeue, Helvetica Neue" font-size="10" font-weight="normal"><tspan x="0" y="8.94">0 KB</tspan></text></g><g id="Group-23" transform="translate(199.709500, 101.831270)"><text id="40-KB" fill="currentColor" font-family="HelveticaNeue, Helvetica Neue" font-size="10" font-weight="normal"><tspan x="0" y="8.94">40 KB</tspan></text></g><g id="Group-25" transform="translate(344.709500, 101.831270)"><text id="80-KB" fill="currentColor" font-family="HelveticaNeue, Helvetica Neue" font-size="10" font-weight="normal"><tspan x="0" y="8.94">80 KB</tspan></text></g><g id="Group-27" transform="translate(486.929500, 101.831270)"><text id="120-KB" fill="currentColor" font-family="HelveticaNeue, Helvetica Neue" font-size="10" font-weight="normal"><tspan x="0" y="8.94">120 KB</tspan></text></g><g id="Group-29" transform="translate(631.929500, 101.831270)"><text id="160-KB" fill="currentColor" font-family="HelveticaNeue, Helvetica Neue" font-size="10" font-weight="normal"><tspan x="0" y="8.94">160 KB</tspan></text></g><polygon id="Fill-30" fill="#CB297B" points="68.5 30.551 633.5 30.551 633.5 47.551 68.5 47.551"/><polygon id="Fill-32" fill="#CB297B" points="68.5 54.551 636.5 54.551 636.5 71.551 68.5 71.551"/><polygon id="Fill-34" fill="#CB297B" points="68.5 77.551 575.5 77.551 575.5 94.551 68.5 94.551"/><g id="Group-37" transform="translate(527.238200, 79.551270)"><text id="139.8-KB" fill="#FFF" font-family="HelveticaNeue, Helvetica Neue" font-size="11" font-weight="normal"><tspan x="0" y="10">139.8 KB</tspan></text></g><g id="Group-39" transform="translate(581.933000, 56.551270)"><text id="156.57-KB" fill="#FFF" font-family="HelveticaNeue, Helvetica Neue" font-size="11" font-weight="normal"><tspan x="0" y="10">156.57 KB</tspan></text></g><g id="Group-41" transform="translate(579.469100, 32.551270)"><text id="155.89-KB" fill="#FFF" font-family="HelveticaNeue, Helvetica Neue" font-size="11" font-weight="normal"><tspan x="0" y="10">155.89 KB</tspan></text></g></g></g></svg>